<?xml version="1.0" encoding="utf-8"?>
<!-- Generator: Adobe Illustrator 27.5.0, SVG Export Plug-In . SVG Version: 6.00 Build 0)  -->
<svg version="1.1" id="Camada_1" xmlns="http://www.w3.org/2000/svg" xmlns:xlink="http://www.w3.org/1999/xlink" x="0px" y="0px"
	 viewBox="0 0 500 500" style="enable-background:new 0 0 500 500;" xml:space="preserve">
<style type="text/css">
	.st0{fill:#FFFFFF;}
</style>
<path class="st0" d="M295.3,464c-25.1,0-50.2,0-75.3,0c2.5-0.4,5-0.8,8.1-1.3c-50.1-7-91.5-29.3-125.3-65.8
	c-34-36.7-50.1-81.2-54.6-130.3c-0.4,3.4-0.7,6.9-1.1,10.3c0-80.3,0-160.6,0-240.9c9.9,0.7,19.8,0.9,29.6,2.2
	c22.7,3.1,44.4,9.9,64.9,20.4c19.5,9.9,37,22.7,52.8,37.8c0.5,0.5,0.8,1.3,1.1,1.9c0.7,1.4,1.2,3,2.2,4.1c4.6,5.2,9.8,10,14.1,15.5
	c13.2,16.8,24.4,34.9,31.4,55.3c3.1,9.1,6.3,18.2,8.6,27.5c5.2,21.7,5.8,43.9,6.1,66.1c0.2,13.8,0.1,27.6,0,41.4
	c-0.2,40.8-0.4,81.6-0.5,122.4c0,2.6,0.4,5.2,0.6,8.5c2.4-10.3,4.5-19.9,6.7-29.4c5.1-21.8,15.8-41.3,26.1-60.7
	c8-15.1,19.9-27.6,32.3-39.3c23.4-22.2,50.3-38.2,80.9-48c12.7-4,25.6-7,38.9-8.2c2-0.2,4.1,0,6.2,0c0.1-0.6,0.2-1.1,0.3-1.7
	c-29.6-2.6-57.1-11.5-83.1-25.6c1.2-2.1-0.3-2.9-1.8-3.8c-6.5-4-13.1-7.8-19.3-12.3c-27.1-19.6-48.5-44.1-64.1-73.8
	c-7.6-14.5-13.8-29.4-17-45.5c-2.5-12.7-4.6-25.5-6.5-38.3c-0.8-5.2-0.6-10.6-0.8-16.2c1.5,0,2.6,0,3.7,0c13.9,0,27.6,1.6,41.1,4.6
	c26.8,5.9,51.7,16.3,74.1,32.4c9.1,6.6,17.6,14,26.3,21c1.8,1.5,4.5,2.4,3.8,5.7c-0.1,0.5,0.8,1.3,1.3,1.8
	c10.7,10.8,20.3,22.6,28.4,35.5c20.2,32.3,30.2,67.8,31.7,105.8c0.7,16.4-0.9,32.7-3.7,48.9c-3.9,22.5-12.2,43.5-22.2,63.7
	c-10.3,20.9-25.2,38.7-42.5,54.4c-18.1,16.5-38.3,29.6-61,38.8c-15.3,6.2-30.7,11.8-47.4,12.8c-1.2,0.1-2.4,0.6-4.2,1.1
	C289.7,463.3,292.5,463.6,295.3,464z"/>
</svg>
