<?xml version="1.0" encoding="utf-8"?>
<!-- Generator: Adobe Illustrator 27.4.1, SVG Export Plug-In . SVG Version: 6.00 Build 0)  -->
<svg version="1.1" id="Camada_1" xmlns="http://www.w3.org/2000/svg" xmlns:xlink="http://www.w3.org/1999/xlink" x="0px" y="0px"
	 viewBox="0 0 300 300" style="enable-background:new 0 0 300 300;" xml:space="preserve">
<style type="text/css">
	.st0{fill:url(#SVGID_1_);}
	.st1{fill:url(#SVGID_00000020384807178213679130000014413784759944960924_);}
	.st2{fill:#10131C;}
	.st3{fill:#10131C;stroke:#10131C;stroke-width:6;stroke-linecap:round;stroke-linejoin:round;stroke-miterlimit:10;}
	.st4{fill:#FFFFFF;}
	.st5{fill:#FFD71D;}
</style>
<linearGradient id="SVGID_1_" gradientUnits="userSpaceOnUse" x1="66.8164" y1="235.5078" x2="81.3469" y2="210.752">
	<stop  offset="0" style="stop-color:#FFBA00"/>
	<stop  offset="1" style="stop-color:#F67F0B"/>
</linearGradient>
<path class="st0" d="M43,230l2.4-32.6c1.7-22.4,16.4-27.1,29.5-28.6l53.5-6.3l-4.3,57.9L43,230z"/>
<linearGradient id="SVGID_00000066477646160692868990000016299705252097409959_" gradientUnits="userSpaceOnUse" x1="257.2275" y1="-11.1185" x2="92.0704" y2="195.8689" gradientTransform="matrix(1 -6.340000e-02 -2.660000e-02 1.0017 1.2356 12.0333)">
	<stop  offset="0" style="stop-color:#FFD71D"/>
	<stop  offset="1" style="stop-color:#FEB200"/>
</linearGradient>
<path style="fill:url(#SVGID_00000066477646160692868990000016299705252097409959_);" d="M265.8,115.3
	C264.1,179.1,211.2,234,147.5,238c-63.6,4-113.8-44.4-112.1-108.1C37.1,66.2,90,11.3,153.7,7.2C217.3,3.2,267.5,51.6,265.8,115.3z"
	/>
<path class="st2" d="M39.6,264.2L39.6,264.2L46,190l2-5c-1.6,25,10,29,23,15c0,0,39-41,178-18l1,66.8c-1.6,8.4-8.1,13.3-15.2,15.8
	C106,310,80,295,80,295C64,289,41.6,280.7,39.6,264.2z"/>
<rect x="79.8" y="75.1" class="st2" width="127.1" height="86"/>
<g>
	<g>
		<path class="st3" d="M54.8,116.8V96.7c0-11.6,4-19.3,16.6-21.2c12.2-1.9,15.9,4.2,15.9,13.7v4.8l-12,1.8v-5.6c0-3.2-0.1-6.7-4-6.1
			c-3.9,0.6-4.2,4.2-4.2,7.5V118c0,3.8,0.6,6.7,4.2,6.2c3.8-0.6,4-4,4-7.4v-5.9l12-1.8v4.8c0,9.5-3.6,17.1-15.9,19
			C58.8,134.8,54.8,128.1,54.8,116.8z"/>
		<path class="st3" d="M90.3,111.9V73.4l12.1-1.8V112c0,3.5,0.4,7.3,4.3,6.7c3.9-0.6,4.2-4.5,4.2-8V70.3l12.2-1.8V107
			c0,11.7-3.7,18.7-16.4,20.6C93.9,129.5,90.3,123.7,90.3,111.9z"/>
		<path class="st3" d="M127.5,67.8l18.6-2.8c9.9-1.5,14.6,3.6,14.6,14c0,12.9-7,17-16,18.3l-4.9,0.7v23.7l-12.2,1.9V67.8z
			 M143.8,88.8c4.5-0.7,5.3-3.2,5.3-8.3c0-4.2-0.5-7.2-5.4-6.5l-4,0.6v14.8L143.8,88.8z"/>
		<path class="st3" d="M162.4,100.7V80c0-11.5,4.2-18.9,16.6-20.8c12.5-1.9,16.8,4.2,16.8,15.7v20.7c0,11.5-4.2,19-16.8,20.9
			C166.5,118.5,162.4,112.2,162.4,100.7z M183.2,100.7V73.8c0-3.3-0.4-6.5-4.2-5.9c-3.6,0.6-4.1,3.9-4.1,7.2v26.9
			c0,3.2,0.3,6.5,4.1,5.9S183.2,103.8,183.2,100.7z"/>
		<path class="st3" d="M200.5,56.7l13.1-2l6.1,31.5l6.6-33.4l12.7-1.9l1,55.6l-8.7,1.3l-1-37l-6.4,38.1l-7.7,1.2l-6.8-36.4
			l-0.8,37.5l-8.8,1.3L200.5,56.7z"/>
	</g>
	<g>
		<path class="st3" d="M68.1,142l9.7-1.5l7.2,37.8l-7.9,1.2l-1.3-8l-5.7,0.9l-1.3,8.4l-8.1,1.2L68.1,142z M75.1,166.5l-2-14.9
			l-2,15.5L75.1,166.5z"/>
		<path class="st3" d="M86.6,139.2l13-2c6.9-1,10.2,2.5,10.2,9.7c0,9-4.9,11.8-11.2,12.8l-3.4,0.5v16.5l-8.5,1.3V139.2z M98,153.8
			c3.1-0.5,3.7-2.2,3.7-5.8c0-2.9-0.3-5-3.8-4.5l-2.8,0.4v10.3L98,153.8z"/>
		<path class="st3" d="M111.4,135.4l8.5-1.3v33.1l8.9-1.3v5.8l-17.4,2.6V135.4z"/>
		<path class="st3" d="M130.2,132.6l8.5-1.3v38.9l-8.5,1.3V132.6z"/>
		<path class="st3" d="M141.6,157.3v-14c0-8.1,2.8-13.4,11.6-14.8c8.5-1.3,11.1,2.9,11.1,9.5v3.4l-8.3,1.3v-3.9c0-2.3,0-4.6-2.8-4.2
			c-2.7,0.4-3,2.9-3,5.2v18.3c0,2.6,0.4,4.7,3,4.3c2.7-0.4,2.8-2.8,2.8-5.2v-4.1l8.3-1.3v3.4c0,6.6-2.5,11.9-11.1,13.3
			C144.4,169.9,141.6,165.2,141.6,157.3z"/>
		<path class="st3" d="M172,126.2l9.7-1.5l7.2,37.8l-7.9,1.2l-1.3-8l-5.7,0.9l-1.3,8.4l-8.1,1.2L172,126.2z M179,150.7l-2-14.9
			l-2,15.5L179,150.7z"/>
		<path class="st3" d="M190.5,123.4l9.8-1.5c10.1-1.5,13,1.7,13,10.3v14.1c0,8.7-2.9,12.9-12.9,14.4l-9.9,1.5V123.4z M200.3,154.9
			c3.9-0.6,4.1-2.3,4.1-5.8v-16.9c0-3.4-0.4-4.7-4.1-4.2l-1.3,0.2v26.9L200.3,154.9z"/>
		<path class="st3" d="M215.5,146.3v-14.4c0-8,2.9-13.2,11.6-14.5c8.7-1.3,11.7,2.9,11.7,10.9v14.4c0,8-3,13.3-11.7,14.6
			C218.4,158.7,215.5,154.3,215.5,146.3z M230,146.2v-18.7c0-2.3-0.3-4.5-3-4.1c-2.5,0.4-2.9,2.7-2.9,5v18.7c0,2.2,0.2,4.5,2.9,4.1
			C229.8,150.8,230,148.4,230,146.2z"/>
	</g>
</g>
<g>
	<path class="st4" d="M54.8,116.8V96.7c0-11.6,4-19.3,16.6-21.2c12.2-1.9,15.9,4.2,15.9,13.7v4.8l-12,1.8v-5.6c0-3.2-0.1-6.7-4-6.1
		c-3.9,0.6-4.2,4.2-4.2,7.5V118c0,3.8,0.6,6.7,4.2,6.2c3.8-0.6,4-4,4-7.4v-5.9l12-1.8v4.8c0,9.5-3.6,17.1-15.9,19
		C58.8,134.8,54.8,128.1,54.8,116.8z"/>
	<path class="st4" d="M90.3,111.9V73.4l12.1-1.8V112c0,3.5,0.4,7.3,4.3,6.7c3.9-0.6,4.2-4.5,4.2-8V70.3l12.2-1.8V107
		c0,11.7-3.7,18.7-16.4,20.6C93.9,129.5,90.3,123.6,90.3,111.9z"/>
	<path class="st4" d="M127.5,67.8l18.6-2.8c9.9-1.5,14.6,3.6,14.6,14c0,12.9-7,17-16,18.3l-4.9,0.7v23.7l-12.2,1.9V67.8z
		 M143.8,88.8c4.5-0.7,5.3-3.2,5.3-8.3c0-4.2-0.5-7.2-5.4-6.5l-4,0.6v14.8L143.8,88.8z"/>
	<path class="st4" d="M162.4,100.7V80c0-11.5,4.2-18.9,16.6-20.8c12.5-1.9,16.8,4.2,16.8,15.7v20.7c0,11.5-4.2,19-16.8,20.9
		C166.5,118.5,162.4,112.2,162.4,100.7z M183.2,100.7V73.8c0-3.3-0.4-6.5-4.2-5.9c-3.6,0.6-4.1,3.9-4.1,7.2v26.9
		c0,3.2,0.3,6.5,4.1,5.9S183.2,103.8,183.2,100.7z"/>
	<path class="st4" d="M200.5,56.7l13.1-2l6.1,31.5l6.6-33.4l12.7-1.9l1,55.6l-8.7,1.3l-1-37l-6.4,38.1l-7.7,1.2l-6.8-36.4l-0.8,37.5
		l-8.8,1.3L200.5,56.7z"/>
</g>
<g>
	<path class="st5" d="M68.1,141l9.7-1.5l7.2,37.8l-7.9,1.2l-1.3-8l-5.7,0.9l-1.3,8.4l-8.1,1.2L68.1,141z M75.1,165.5l-2-14.9
		l-2,15.5L75.1,165.5z"/>
	<path class="st5" d="M86.6,138.2l13-2c6.9-1,10.2,2.5,10.2,9.7c0,9-4.9,11.8-11.2,12.8l-3.4,0.5v16.5l-8.5,1.3V138.2z M98,152.8
		c3.1-0.5,3.7-2.2,3.7-5.8c0-2.9-0.3-5-3.8-4.5l-2.8,0.4v10.3L98,152.8z"/>
	<path class="st5" d="M111.4,134.4l8.5-1.3v33.1l8.9-1.3v5.8l-17.4,2.6V134.4z"/>
	<path class="st5" d="M130.2,131.6l8.5-1.3v38.9l-8.5,1.3V131.6z"/>
	<path class="st5" d="M141.6,156.3v-14c0-8.1,2.8-13.4,11.6-14.8c8.5-1.3,11.1,2.9,11.1,9.5v3.4l-8.3,1.3v-3.9c0-2.3,0-4.6-2.8-4.2
		c-2.7,0.4-3,2.9-3,5.2v18.3c0,2.6,0.4,4.7,3,4.3c2.7-0.4,2.8-2.8,2.8-5.2v-4.1l8.3-1.3v3.4c0,6.6-2.5,11.9-11.1,13.3
		C144.4,168.9,141.6,164.2,141.6,156.3z"/>
	<path class="st5" d="M172,125.2l9.7-1.5l7.2,37.8l-7.9,1.2l-1.3-8l-5.7,0.9l-1.3,8.4l-8.1,1.2L172,125.2z M179,149.7l-2-14.9
		l-2,15.5L179,149.7z"/>
	<path class="st5" d="M190.5,122.4l9.8-1.5c10.1-1.5,13,1.7,13,10.3v14.1c0,8.7-2.9,12.9-12.9,14.4l-9.9,1.5V122.4z M200.3,153.9
		c3.9-0.6,4.1-2.3,4.1-5.8v-16.9c0-3.4-0.4-4.7-4.1-4.2l-1.3,0.2v26.9L200.3,153.9z"/>
	<path class="st5" d="M215.5,145.3v-14.4c0-8,2.9-13.2,11.6-14.5c8.7-1.3,11.7,2.9,11.7,10.9v14.4c0,8-3,13.3-11.7,14.6
		C218.4,157.6,215.5,153.3,215.5,145.3z M230,145.2v-18.7c0-2.3-0.3-4.5-3-4.1c-2.5,0.4-2.9,2.7-2.9,5v18.7c0,2.2,0.2,4.5,2.9,4.1
		C229.8,149.8,230,147.4,230,145.2z"/>
</g>
<path class="st4" d="M178.6,222.7v-4.5c0-8.4,3-13.6,11.1-14.7c8-1.1,11.1,3,11.1,11.3v5.1c0,8.3-3.2,13.6-11.1,14.7
	C181.9,235.7,178.6,230.9,178.6,222.7z M194,220.9v-5.1c0-3.9-0.6-7-4.2-6.5c-3.7,0.5-4.2,3.8-4.2,7.7v5.1c0,3.8,0.6,7.3,4.2,6.8
	C193.3,228.4,194,224.7,194,220.9z M212.3,200.9l6.5-0.9l-15.7,59.9l-6.6,0.9L212.3,200.9z M214.4,245.3v-4.5c0-8.3,3-13.6,11-14.7
	c8.1-1.1,11.1,3.1,11.1,11.4v5c0,8.3-3.2,13.6-11.1,14.7C217.6,258.3,214.4,253.6,214.4,245.3z M229.7,243.5v-5.1
	c0-3.9-0.6-7-4.2-6.5c-3.7,0.5-4.2,3.8-4.2,7.7v5.1c0,3.8,0.6,7.3,4.2,6.8C229.1,250.9,229.7,247.3,229.7,243.5z"/>
</svg>
