<?xml version="1.0" encoding="utf-8"?>
<!-- Generator: Adobe Illustrator 27.4.1, SVG Export Plug-In . SVG Version: 6.00 Build 0)  -->
<svg version="1.1" id="Camada_1" xmlns="http://www.w3.org/2000/svg" xmlns:xlink="http://www.w3.org/1999/xlink" x="0px" y="0px"
	 viewBox="0 0 300 300" style="enable-background:new 0 0 300 300;" xml:space="preserve">
<style type="text/css">
	.st0{fill:url(#SVGID_1_);}
	.st1{fill:#10131C;}
	.st2{fill:url(#SVGID_00000067957904089720260550000003048039433460026288_);}
	.st3{fill:#10131C;stroke:#10131C;stroke-width:6;stroke-linecap:round;stroke-linejoin:round;stroke-miterlimit:10;}
	.st4{fill:#FFFFFF;}
	.st5{fill:#FFD71D;}
</style>
<linearGradient id="SVGID_1_" gradientUnits="userSpaceOnUse" x1="251.4813" y1="82.2731" x2="226.6862" y2="112.6766" gradientTransform="matrix(1 -2.050000e-02 0 1 0 1.9446)">
	<stop  offset="0" style="stop-color:#FFBA00"/>
	<stop  offset="1" style="stop-color:#F67F0B"/>
</linearGradient>
<path class="st0" d="M253.1,139.1l4-29.4c2.7-20.3-10.2-20.8-22.2-18.8l-49,8l-7,52.4L253.1,139.1z"/>
<path class="st1" d="M210.4,191.2L76.7,177.1c-4.5-0.5-8.3-3.6-9.6-7.9L40.5,82.1c-2-6.5,2.3-13.3,9-14.4l186.8-29.2
	c7.7-1.2,14.3,5.7,12.8,13.3l-26.4,130.4C221.5,187.9,216.2,191.8,210.4,191.2z"/>
<linearGradient id="SVGID_00000118380738721096025730000014901287009037979063_" gradientUnits="userSpaceOnUse" x1="141.856" y1="270.4843" x2="154.8727" y2="140.3181">
	<stop  offset="0" style="stop-color:#FEB200"/>
	<stop  offset="1" style="stop-color:#FFD71D"/>
</linearGradient>
<path style="fill:url(#SVGID_00000118380738721096025730000014901287009037979063_);" d="M241.3,227.1L241.3,227.1L257,109.5l0,0
	c-2.7,19.9-16.4,25.1-28.4,27L61,163.8c-4.7,0.8-8.2,4.7-8.5,9.4l-5.6,95.4c-0.4,6.5,5.3,11.6,11.7,10.6l154.3-25.1
	C224.9,252.2,236.6,241,241.3,227.1z"/>
<g>
	<path class="st3" d="M84,72.9l9-2.7c0.1,6.2,1.5,8.3,4.2,7.9c2.2-0.3,2.6-2.2,2.6-3.9c0-4-2-6-5.2-8.3l-4.1-3
		c-3.6-2.5-6.4-5.7-6.4-11.5c0-8.1,5.1-13.3,13.3-14.6c10.2-1.5,11.6,6.2,11.8,11.8l-9,2.5c-0.1-4.2-0.4-6.9-3.1-6.5
		c-1.9,0.3-2.8,2.5-2.8,4.2c0,3.5,1.8,5.2,4.6,7.2l3.9,2.9c4.1,2.9,7.4,6.6,7.4,13.2c0,6.8-4.9,12.8-12.5,14
		C88.7,87.4,84.3,83.5,84,72.9z"/>
	<path class="st3" d="M111.4,75.8V49l9.6-1.5v25.7c0,1.7,0.5,2.5,2,2.3c0.8-0.1,1.8-0.7,2.8-1.5V46.9l9.5-1.4v34.2l-9.5,1.4v-3.1
		c-2.5,2.7-5.2,4.5-8,4.9C113.6,83.5,111.4,80.4,111.4,75.8z"/>
	<path class="st3" d="M138.4,44.9l9.6-1.5V46c2.3-2.4,5-3.8,7.3-4.2c5.2-0.8,7.3,3.4,7.3,8.9v14.7c0,6.4-2.6,11-7.4,11.7
		c-2.5,0.4-5-0.5-7.2-2.1v13.8l-9.6,1.5V44.9z M153.1,67.4v-16c0-2-0.7-3.4-2.4-3.2c-1,0.2-1.9,0.8-2.7,1.6v21.3
		c0.8,0.4,1.6,0.6,2.5,0.5C152.4,71.4,153.1,69.6,153.1,67.4z"/>
	<path class="st3" d="M164.5,64.4V51.8c0-7.3,4.5-12.1,11.8-13.2c7.5-1.1,11.3,2.3,11.3,9.7v6.9l-13.6,2.1v6.6
		c0,2.7,0.9,3.5,2.3,3.3s2.5-1.2,2.5-3.7v-3.6l8.8-1.3v3.3c0,6.9-4.2,11.1-11.3,12.2C168.9,75.1,164.5,71.6,164.5,64.4z M178.7,52
		v-3.4c0-2.7-1.1-3.3-2.5-3.1c-1.4,0.2-2.3,1.2-2.3,4.4v2.9L178.7,52z"/>
	<path class="st3" d="M190,37.1l9.6-1.5v5.7c2.2-4.2,4.1-6.7,7.3-7.2c0.6-0.1,1.1-0.1,1.5,0v9.6c-0.9-0.2-1.9-0.4-3.1-0.2
		c-2.2,0.3-4.1,1.9-5.6,4.2v22.2l-9.6,1.5V37.1z"/>
</g>
<g>
	<path class="st4" d="M83,72.9l9-2.7c0.1,6.2,1.5,8.3,4.2,7.9c2.2-0.3,2.6-2.2,2.6-3.9c0-4-2-6-5.2-8.3l-4.1-3
		c-3.6-2.5-6.4-5.7-6.4-11.5c0-8.1,5.1-13.3,13.3-14.6c10.2-1.5,11.6,6.2,11.8,11.8l-9,2.5c-0.1-4.2-0.4-6.9-3.1-6.5
		c-1.9,0.3-2.8,2.5-2.8,4.2c0,3.5,1.8,5.2,4.6,7.2l3.9,2.9c4.1,2.9,7.4,6.6,7.4,13.2c0,6.8-4.9,12.8-12.5,14
		C87.7,87.4,83.4,83.5,83,72.9z"/>
	<path class="st4" d="M110.5,75.9V49.1l9.6-1.5v25.7c0,1.7,0.5,2.5,2,2.3c0.8-0.1,1.8-0.7,2.8-1.5V46.9l9.5-1.4v34.2l-9.5,1.4v-3.1
		c-2.5,2.7-5.2,4.5-8,4.9C112.6,83.5,110.5,80.4,110.5,75.9z"/>
	<path class="st4" d="M137.5,45l9.6-1.5V46c2.3-2.4,5-3.8,7.3-4.2c5.2-0.8,7.3,3.4,7.3,8.9v14.7c0,6.4-2.6,11-7.4,11.7
		c-2.5,0.4-5-0.5-7.2-2.1V89l-9.6,1.5V45z M152.1,67.5v-16c0-2-0.7-3.4-2.4-3.2c-1,0.2-1.9,0.8-2.7,1.6v21.3
		c0.8,0.4,1.6,0.6,2.5,0.5C151.4,71.4,152.1,69.6,152.1,67.5z"/>
	<path class="st4" d="M163.5,64.4V51.9c0-7.3,4.5-12.1,11.8-13.2c7.5-1.1,11.3,2.3,11.3,9.7v6.9L173,57.3v6.6c0,2.7,0.9,3.5,2.4,3.3
		c1.4-0.2,2.5-1.2,2.5-3.7v-3.6l8.8-1.3v3.3c0,6.9-4.2,11.1-11.3,12.2C167.9,75.1,163.5,71.7,163.5,64.4z M177.8,52.1v-3.4
		c0-2.7-1.1-3.3-2.5-3.1c-1.4,0.2-2.3,1.2-2.3,4.4v2.9L177.8,52.1z"/>
	<path class="st4" d="M189,37.2l9.6-1.5v5.7c2.2-4.2,4.1-6.7,7.3-7.2c0.6-0.1,1.1-0.1,1.5,0v9.6c-0.9-0.2-1.9-0.4-3.1-0.2
		c-2.2,0.3-4.1,1.9-5.6,4.2v22.2l-9.6,1.5V37.2z"/>
</g>
<g>
	<path class="st5" d="M67.9,101.7l9.7-1.5c10-1.5,12.9,1.7,12.9,10.2v14c0,8.7-2.9,12.8-12.8,14.3l-9.8,1.5V101.7z M77.7,132.9
		c3.8-0.6,4.1-2.3,4.1-5.8v-16.8c0-3.4-0.4-4.7-4.1-4.1l-1.3,0.2v26.7L77.7,132.9z"/>
	<path class="st5" d="M92.2,127.9v-10.1c0-5.9,3.6-9.7,9.5-10.6c6-0.9,9.1,1.8,9.1,7.8v5.5l-11,1.7v5.3c0,2.1,0.8,2.8,1.9,2.7
		c1.1-0.2,2-1,2-3v-2.9l7.1-1.1v2.7c0,5.6-3.4,8.9-9.1,9.8C95.8,136.5,92.2,133.7,92.2,127.9z M103.7,117.9v-2.8
		c0-2.2-0.9-2.7-2-2.5c-1.1,0.2-1.8,1-1.8,3.5v2.3L103.7,117.9z"/>
	<path class="st5" d="M111.2,127.3l5.2-3.1c1,2.3,2.4,3.6,4,3.4c1.2-0.2,1.8-0.8,1.8-1.7c0-1.5-0.9-2.1-3.8-4.1l-2-1.4
		c-2.9-2-4.7-3.8-4.7-7.2c0-4.5,3.9-8.2,8.4-8.8c4.5-0.7,7.6,1.4,8.8,5.8l-5,3c-0.6-1.7-1.9-3.7-3.6-3.4c-1,0.2-1.7,0.9-1.7,1.8
		c0,1.2,1.4,2.3,3.8,3.9l1.9,1.4c2.4,1.6,4.9,3.5,4.9,7.1c0,4.8-4,8.1-8.4,8.7C116.3,133.4,113.2,131.9,111.2,127.3z"/>
	<path class="st5" d="M129.7,122.2v-10.1c0-5.8,3.5-9.7,9.4-10.6c5.8-0.9,9.2,1.3,9.2,6.9v2.9l-7.4,1.1v-3.1c0-2.2-0.7-2.7-1.8-2.5
		c-1.1,0.2-1.7,1.1-1.7,3.5v11.4c0,2.5,0.6,3.1,1.7,2.9c1.2-0.2,1.7-1,1.7-3v-3.7l7.4-1.1v3.3c0,5.6-3.4,8.9-9.2,9.8
		C133.2,130.8,129.7,127.9,129.7,122.2z"/>
	<path class="st5" d="M149.5,119.4v-10.5c0-6,3.7-9.5,9.5-10.4c5.8-0.9,9.6,1.5,9.6,7.5v10.5c0,6-3.8,9.6-9.6,10.4
		C153.2,127.8,149.5,125.4,149.5,119.4z M161,118.1v-11.5c0-2.1-0.4-3.3-1.9-3c-1.5,0.2-2,1.6-2,3.6v11.5c0,2.1,0.5,3.3,2,3
		C160.6,121.5,161,120.2,161,118.1z"/>
	<path class="st5" d="M170.5,97.2l7.7-1.2v2.8c2-2.3,4.2-3.9,6.6-4.2c3.4-0.5,5.1,2,5.1,5.7v21.5l-7.7,1.2v-20.5
		c0-1.3-0.4-2-1.6-1.8c-0.6,0.1-1.5,0.6-2.4,1.4v21.5l-7.7,1.2V97.2z"/>
	<path class="st5" d="M192.9,113.8V98.9l-2.6,0.4v-5.1l2.6-0.4v-8.4l7.8-1.2v8.4l3.9-0.6v5.1l-3.9,0.6v14.2c0,1.6,1,2.1,2.4,1.9
		c0.8-0.1,1.5-0.3,2.1-0.5v6.1c-0.8,0.3-2.8,0.8-4.6,1.1C194.4,121.4,192.9,118.8,192.9,113.8z"/>
	<path class="st5" d="M205.9,110.8v-10.5c0-6,3.7-9.5,9.5-10.4c5.8-0.9,9.6,1.5,9.6,7.5v10.5c0,6-3.8,9.6-9.6,10.4
		C209.6,119.2,205.9,116.8,205.9,110.8z M217.4,109.6V98.1c0-2.1-0.4-3.3-1.9-3c-1.5,0.2-2,1.6-2,3.6v11.5c0,2.1,0.5,3.3,2,3
		C217,113,217.4,111.7,217.4,109.6z"/>
</g>
<g>
	<path class="st1" d="M171.5,179.4v-3.1c0-5.7,2.1-9.3,7.6-10.1c5.5-0.8,7.6,1.9,7.6,7.6v3.5c0,5.6-2.2,9.3-7.6,10.1
		C173.7,188.2,171.5,185,171.5,179.4z M182,178v-3.5c0-2.7-0.4-4.8-2.9-4.4c-2.5,0.4-2.9,2.7-2.9,5.3v3.5c0,2.6,0.4,4.9,2.9,4.6
		C181.6,183.1,182,180.6,182,178z M194.6,164.1l4.5-0.7l-10.8,41.1l-4.5,0.7L194.6,164.1z M196.1,194.4v-3.1c0-5.7,2-9.3,7.6-10.1
		s7.6,2,7.6,7.7v3.4c0,5.7-2.2,9.3-7.6,10.1C198.3,203.3,196.1,200.1,196.1,194.4z M206.6,193.1v-3.5c0-2.7-0.4-4.8-2.9-4.4
		s-2.9,2.7-2.9,5.3v3.5c0,2.6,0.4,4.9,2.9,4.6C206.2,198.1,206.6,195.6,206.6,193.1z"/>
</g>
<g>
	<path class="st1" d="M172.6,232.6v-9.4c0-4.9,1.8-8.1,6.8-8.9c5-0.8,6.8,2,6.8,6.8v9.4c0,4.9-1.8,8.3-6.8,9
		C174.3,240.4,172.6,237.5,172.6,232.6z M182.6,231.9V221c0-2.8-0.5-4.4-3.3-4c-2.8,0.4-3.3,2.2-3.3,4.9v10.9c0,2.8,0.5,4.5,3.3,4.1
		C182.1,236.5,182.6,234.6,182.6,231.9z"/>
	<path class="st1" d="M189.5,213l9.6-1.4v2.5L193,215v8.3l4.7-0.7v2.5l-4.7,0.7v11.6l-3.5,0.5V213z"/>
	<path class="st1" d="M201.5,211.2l9.6-1.4v2.5l-6.1,0.9v8.3l4.7-0.7v2.5l-4.7,0.7v11.6l-3.5,0.5V211.2z"/>
</g>
</svg>
