<?xml version="1.0" encoding="utf-8"?>
<!-- Generator: Adobe Illustrator 27.4.1, SVG Export Plug-In . SVG Version: 6.00 Build 0)  -->
<svg version="1.1" id="Camada_1" xmlns="http://www.w3.org/2000/svg" xmlns:xlink="http://www.w3.org/1999/xlink" x="0px" y="0px"
	 viewBox="0 0 150 150" style="enable-background:new 0 0 150 150;" xml:space="preserve">
<style type="text/css">
	.st0{fill:#FFFFFF;}
</style>
<g>
	<path class="st0" d="M86.6,87c-2.2,1.2-4.2,2.3-6.1,3.5c-0.3,0.2-0.7,0.8-0.7,1.2c0,8.1-0.1,16.2,0,24.3c0,0.6,0.7,1.3,1.2,1.7
		c3.7,2.9,4.9,7.8,2.8,12.1c-1.9,4-6.7,6.2-11,4.9c-3.8-1.1-6.2-3.6-7-7.5c-0.8-4,0.7-7.2,3.8-9.7c0.6-0.5,1.1-1.3,1.1-2
		c0.1-7.7,0-15.4,0.1-23.1c0-1-0.2-1.5-1.3-1.9c-1.7-0.7-3.2-1.6-4.7-2.6c-0.8-0.6-1.4-0.8-2.3-0.3c-7,3.8-14,7.6-21,11.4
		c-0.5,0.3-1,1.1-1.1,1.8c-0.7,4.8-4,8-8.8,8.5c-4.4,0.5-8.3-2.1-9.9-6.4c-1.3-3.5-0.3-7.7,2.6-10.2c3.2-2.8,6.8-3.2,10.6-1.6
		c1.1,0.4,1.8,0.4,2.7-0.1C44.3,87.2,51,83.6,57.7,80c1-0.5,1.3-1.1,1.2-2.3c-0.2-1.8-0.2-3.7,0-5.6c0.1-1.1-0.2-1.5-1.1-2
		c-6.4-3.7-12.7-7.5-19.1-11.3c-0.9-0.5-1.6-0.7-2.7-0.2c-4.6,2.1-10,0.2-12.3-4.1c-2.4-4.6-1.1-9.9,3.2-12.7
		c4.1-2.7,9.8-1.8,12.8,2.3c1,1.4,1.3,3.3,2,4.9c0.3,0.7,0.6,1.5,1.2,1.9c6.5,3.9,13,7.7,19.5,11.6c0.9,0.5,1.4,0.5,2.3-0.1
		c1.5-1,3.3-1.7,4.8-2.7c0.5-0.3,1-1,1-1.5c0.1-8,0.1-16,0-23.9c0-0.6-0.6-1.3-1.1-1.7c-3.4-2.5-4.9-6.9-3.6-10.9
		c1.3-4,4.9-6.6,9.1-6.7c4.3,0,7.9,2.5,9.2,6.7c1.3,4-0.1,8.3-3.6,10.9c-0.5,0.4-0.9,1.2-1,1.8c-0.1,8,0,16-0.1,23.9
		c0,0.9,0.3,1.4,1.1,1.8c1.7,0.9,3.3,2.1,5,3.1c0.4,0.3,1.2,0.4,1.6,0.2c7.1-3.7,14.1-7.5,21.1-11.3c0.6-0.3,1-1.3,1.1-2.1
		c1.4-7,9.1-10.2,14.9-6.3c4.1,2.8,5.4,8.4,3,12.7c-2.5,4.4-8,6.2-12.6,3.9c-1-0.5-1.7-0.5-2.7,0c-6.7,3.6-13.4,7.3-20.2,10.8
		c-1,0.5-1.3,1.1-1.2,2.2c0.1,1.2,0.3,2.5,0,3.6c-0.4,1.6,0.2,2.4,1.6,3.1c6.6,3.8,13,7.7,19.6,11.5c0.6,0.3,1.7,0.3,2.4,0
		c3.8-1.4,7.9-0.6,10.6,2.3c2.7,2.9,3.4,7.2,1.7,10.9c-1.6,3.4-5.4,5.6-9.2,5.4c-4.8-0.3-8.5-4-9.1-8.8c-0.1-0.7-0.4-1.6-0.9-1.9
		c-6.9-4.1-13.8-8.2-20.7-12.3C86.7,87,86.5,87,86.6,87z M74.9,64.7c-5.8,0-10.6,4.7-10.5,10.5c0,5.7,4.8,10.4,10.5,10.4
		c5.8,0,10.5-4.8,10.5-10.6C85.4,69.3,80.6,64.7,74.9,64.7z"/>
	<path class="st0" d="M74.9,70.2c2.8,0,5,2.2,5,4.9c0,2.8-2.3,5.1-5.1,5c-2.8,0-4.9-2.3-4.9-5.1C70,72.2,72.1,70.2,74.9,70.2z"/>
</g>
</svg>