<svg xmlns="http://www.w3.org/2000/svg" viewBox="0 0 510 330">
    <path
        d="M226.71,149.05h-15.3l-1.92,4.62H198.86L216,114.78h6.22l17.11,38.89H228.68Zm-3.27-7.77L219,130.75l-4.35,10.53Z"
        fill="#231f20" />
    <path
        d="M274.73,139.05c0,9.38-5.92,15.4-15,15.4a24.64,24.64,0,0,1-5.6-.57V164h-9.85V125.15h8.29l-.31,4.77a11.06,11.06,0,0,1,10-5.55C269.64,124.37,274.73,130.33,274.73,139.05Zm-10.12.51c0-4.77-1.86-7.72-5.44-7.72-3,0-5.08,2.69-5.08,6.69v8.4a8.94,8.94,0,0,0,2.9.46C261.5,147.39,264.61,144.91,264.61,139.56Z"
        fill="#231f20" />
    <path
        d="M300.19,133.86h-1.82c-5.24,0-7.83,2.64-7.83,7.83v12h-9.85V125.15H289l-.46,6.64c1.29-4.57,4.72-7.47,10.11-7.42Z"
        fill="#231f20" />
    <path
        d="M332.23,141.85h-18.3c1.24,3.11,4.4,4.77,9.17,4.77a17.35,17.35,0,0,0,8.72-2.23l-1.66,7.83a20.92,20.92,0,0,1-9.91,2.23c-10,0-16.85-6.33-16.85-15.46,0-8.76,6.27-14.62,15.82-14.62,8.34,0,13.43,4.77,13.43,12.5A40,40,0,0,1,332.23,141.85ZM313.67,136h9.38c0-3.11-2-4.36-4.2-4.36C316.21,131.63,314.34,133.39,313.67,136Z"
        fill="#231f20" />
    <path
        d="M367.39,134.59v19.08h-9.85V136.61c0-2.75-1.51-4.31-4-4.31-3.16,0-5.13,2.29-5.13,6.38v15h-9.85V125.15h8.3l-.37,4.82a11,11,0,0,1,10.06-5.6C363.55,124.37,367.39,128.1,367.39,134.59Z"
        fill="#231f20" />
    <path
        d="M403.63,111.41v42.26h-8l.41-3.79c-1.92,3.32-5.13,4.57-9.18,4.57-7.78,0-13.74-5.76-13.74-14.94s6.38-15.14,16.23-15.14a24.82,24.82,0,0,1,4.46.36v-12.8Zm-9.85,29.81v-9.43a11.28,11.28,0,0,0-2.23-.26c-5.34,0-8.09,2.95-8.09,7.88s2.34,7.57,5.86,7.57C392.07,147,393.78,144.8,393.78,141.22Z"
        fill="#231f20" />
    <path
        d="M410.11,116.39a5.84,5.84,0,0,1,6-5.92,6,6,0,0,1,0,11.93A5.89,5.89,0,0,1,410.11,116.39Zm1,8.76H421v28.52h-9.85Z"
        fill="#231f20" />
    <path d="M453.57,145.89v7.78H427.23v-5.19l11.87-15.55H427.74v-7.78h25.41v5.24l-11.77,15.5Z"
        fill="#231f20" />
    <path d="M229.72,207.08l-1,4.92H203.27V173.11H209v34Z" fill="#231f20" />
    <path
        d="M261.76,198.94H240.09c.72,5.49,4.92,8.81,11.46,8.81a15.91,15.91,0,0,0,9.23-2.9l-1,5.24a17.94,17.94,0,0,1-9.64,2.54c-9.39,0-15.87-6.23-15.87-15.35,0-8.71,6.07-14.42,14.78-14.42,8,0,13,4.82,13,12.71A25.86,25.86,0,0,1,261.76,198.94Zm-21.57-4.57h16.44c-.31-4.61-3.42-6.84-7.73-6.84C244.39,187.53,241.12,190.07,240.19,194.37Z"
        fill="#231f20" />
    <path
        d="M294.43,183.48v27.85c0,7.67-4.67,11.67-12.76,11.67a31.13,31.13,0,0,1-9.59-1.45l-.93-4.93a28.66,28.66,0,0,0,9.28,1.71c5.65,0,8.56-2.33,8.61-7l0-3.83a11.21,11.21,0,0,1-9.85,5c-7.16,0-12.24-5.39-12.24-14.36,0-9.28,5.7-15.3,14.26-15.3a13.18,13.18,0,0,1,7.83,2.34l-.1-1.72Zm-5.81,13.28v-7.1a9.18,9.18,0,0,0-6.43-2.44c-5.7,0-9.43,4.41-9.43,10.89,0,6.22,3.11,9.85,7.46,9.85C285.15,208,288.62,203.4,288.62,196.76Z"
        fill="#231f20" />
    <path
        d="M326.37,194.17V212h-5.13l.41-3.94c-2.07,3.06-5.39,4.57-9.38,4.57-6.43,0-10.94-4-10.94-9.91,0-5.6,3.78-8.19,11.2-8.19H321v-.05c0-4.72-2.33-6.8-8.66-6.8a29.08,29.08,0,0,0-8.5,1.35L305,184a36.19,36.19,0,0,1,8.45-1.09C322.9,182.86,326.37,186.91,326.37,194.17ZM321,198.83h-8.14c-3.94,0-5.91,1.46-5.91,4.15,0,3.37,2.64,5.29,6.43,5.29S321,205.16,321,198.83Z"
        fill="#231f20" />
    <path d="M335.5,170.52h5.6V212h-5.6Z" fill="#231f20" />
    <path
        d="M176,211.8,124.22,107.05a14.43,14.43,0,0,0-13-8.07h0a14.42,14.42,0,0,0-13,8.15c-10.87,22.32-30.34,62.18-38.62,78.46a28,28,0,0,0,1.77,28.64c6.61,10.16,18.78,16.57,30.32,16,10.27-.54,18.77-6.27,24-16.14L102,205.22l-.49.95c-2.53,5-6.14,7.63-10.72,7.87-5.77.32-12.45-3.32-15.91-8.62a12,12,0,0,1-.91-12.5c1.76-3.45,4-7.95,6.57-13.11h0l7.23-14.61c7.92-16.09,16.92-34.52,23.47-47.95l45.64,92.43-60.8-39.13h0l-7.22,14.59-.13-.09,17.85,11.49h0l13.64,8.79h0l36.1,23.23A13.32,13.32,0,0,0,176,211.8Z"
        fill="#231f20" />
</svg>